<svg xmlns="http://www.w3.org/2000/svg" width="715.4" height="263.6" viewBox="0 0 715.4 263.6">
  <g id="Groupe_4" data-name="Groupe 4" transform="translate(-297.8 -162.1)">
    <g id="XMLID_11_">
      <g id="XMLID_182_">
        <path id="XMLID_198_" d="M547.1,324.8c-8.4,0-12.8-1.7-17.3-6.1-4.4-4.4-6.5-9.4-6.5-17.2,0-5.1,12.4-76.1,12.4-76.1H513.2l3.4-19.3h22.6l4.3-23.8h26l-3.9,23.8,25.7-.1-3,19.3H562s-11,63.9-11.5,66.9c-1.3,8.5-1.3,11.9,9.9,12.1a137.4,137.4,0,0,0,14.7-.4l-1,20.5C564,324.3,558.1,324.8,547.1,324.8Z" fill="#314660"/>
        <path id="XMLID_196_" d="M969,324.8c-8.4,0-12.8-1.7-17.3-6.1-4.4-4.4-6.5-9.4-6.5-17.2,0-5.1,12.4-76.1,12.4-76.1H935.1l3.4-19.3h22.6l4.3-23.8h26l-3.9,23.8,25.7-.1-3,19.3H983.9s-11,63.9-11.5,66.9c-1.3,8.5-1.3,11.9,9.9,12.1a137.4,137.4,0,0,0,14.7-.4l-1,20.5C985.9,324.3,980,324.8,969,324.8Z" fill="#314660"/>
        <path id="XMLID_194_" d="M297.8,300.2c17,.3,35.3.2,50.2-1.7,15.2-1.9,20.8-6.3,25.1-14.9,1.5-2.9.2-8.8-1.7-12-2.7-4.5-3.8-5-11.1-11.1l-11.4-7.9c-7.3-5-18.1-13.6-21.1-16.9a61.108,61.108,0,0,1-12.1-19.2c-5.7-15.3-1-31.6,9.3-40.9,12.6-11.5,31.1-11.5,52.4-11.5,16,0,20.6.9,32.6,1.7l-.6,22.8c-14.8-.7-26.4-1.3-38.5-1.3-16.3,0-29.4.4-31.3,14.5-1.3,9.4,5.7,15.8,8,18.2a93.586,93.586,0,0,0,13.9,12L379,243.5c10.4,8.2,12.5,10.8,16.7,17.9,3.7,6.2,4.7,13.8,3.8,22.8-1.4,14.1-11.4,25.6-20.6,30.9-7.2,4.2-11.9,8.4-35.8,9.1-18.6.5-30.5.4-45.3-.1Z" fill="#314660"/>
        <path id="XMLID_191_" d="M469.6,325.5l.5-8c-10.9,5.6-16.3,7.8-29,7.6-9.3-.1-17.9-3-24-10-3.3-3.7-6.3-9-8.7-19.9-2.2-9.9-1.6-20.8.7-32.4,2.1-10.4,7.6-23.1,13.8-32.6,9.3-14.3,25.5-25.8,44.2-28,21.9-2.6,42.3,6.7,42.3,6.7L493.3,325.4H469.6v.1Zm13.6-98.2c-5.7-1.8-15-2.5-23.1,1.4-8.8,4.3-12.7,9-17.9,17.4-6.5,10.9-10.5,26.8-9.5,37.9.5,5.8,1.6,9.6,3.7,12.5a13.144,13.144,0,0,0,10.5,5c5.7,0,18.1-4.1,25.8-9.2Z" fill="#314660"/>
        <path id="XMLID_189_" d="M569.4,334.5c15.3.2,22.5,1.7,27.1-2.2,5.4-4.6,4-6.2,5.8-15.3l12.9-91.7H593.7L597,206h20.5l1.7-10c1.4-9.2,3.8-18.5,11.8-24.5,11.2-8.4,22.6-9.4,40.9-9.4,6.8,0,15,.3,24.3.4,9.4.1,14.4.5,18.7.7L686.6,324.3H662.8l25.4-141.2c-5.4.1-12.4-.5-20.1-.4-10.4.1-13.2.8-17.3,3.6-6.8,4.7-8.1,19.7-8.1,19.7h25.2l-3.2,19.3H639.9l-13.1,91.4c-3.1,18.2-4.8,23.7-12.4,29.8-7.9,6.3-12.6,7.9-25.6,8.1-7.1.1-11.1.1-19.5.1l.1-20.2Z" fill="#314660"/>
        <path id="XMLID_186_" d="M815.3,272.8H742.4c-3.9,27.9,5.9,28.5,26.3,28.1,16.2-.3,21,.2,34.8-.1l-.2,22.3c-5.5,0-29.8,1.3-42.6,1.2-14.7-.1-24.7-2.6-34.7-14.8-13.6-16.4-7.3-51.2-2.4-65.5,6.7-19.7,15.4-28.1,25-33.9C762.5,201.9,828.7,189.1,815.3,272.8Zm-39.7-45.7c-7.3-.9-13.6.6-18.6,5.1-5,4.4-8.1,11.4-10.3,19.8h47.1C793.8,239.1,788.1,228.6,775.6,227.1Z" fill="#314660"/>
        <path id="XMLID_183_" d="M925.7,272.8H852.8c-3.9,27.9,5.9,28.5,26.3,28.1,16.2-.3,21,.2,34.8-.1l-.2,22.3c-5.5,0-29.8,1.3-42.6,1.2-14.7-.1-24.7-2.6-34.7-14.8-13.6-16.4-7.3-51.2-2.4-65.5,6.7-19.7,15.4-28.1,25-33.9C872.9,201.9,939.2,189.1,925.7,272.8Zm-39.6-45.7c-7.3-.9-13.6.6-18.6,5.1-5,4.4-8.1,11.4-10.3,19.8h47.1C904.2,239.1,898.6,228.6,886.1,227.1Z" fill="#314660"/>
      </g>
    </g>
    <g id="Groupe_2" data-name="Groupe 2">
      <path id="Tracé_6" data-name="Tracé 6" d="M647.2,340.7l-1,5.5H633l-1.6,9h10.1l-1,5.4H630.4L628,374h-7.3l5.9-33.3Z" fill="#2557a1"/>
      <path id="Tracé_7" data-name="Tracé 7" d="M657.5,338.5,651.3,374h-6.7l6.2-35.5Z" fill="#2557a1"/>
      <path id="Tracé_8" data-name="Tracé 8" d="M667.8,374.5c-3.7,0-6.4-.9-8.3-2.6s-2.7-4.2-2.7-7.4a23.487,23.487,0,0,1,.8-6,13.4,13.4,0,0,1,2.3-4.8,12.267,12.267,0,0,1,4.3-3.9,13.073,13.073,0,0,1,6.1-1.4,11.423,11.423,0,0,1,4.8.9,6.757,6.757,0,0,1,3,2.5,9.549,9.549,0,0,1,1.4,3.9,18.664,18.664,0,0,1-.2,5.2l-.4,2.3H663.5v.5c0,2.1.4,3.5,1.3,4.4s2.4,1.3,4.6,1.3a20.236,20.236,0,0,0,4.3-.5,15.179,15.179,0,0,0,3.6-1.2l-.8,4.6a20.837,20.837,0,0,1-3.6,1.4,18.179,18.179,0,0,1-5.1.8Zm5.2-15.4c.4-2.1.3-3.6-.2-4.5-.5-1-1.5-1.4-3-1.4a4.6,4.6,0,0,0-3.4,1.4,9.823,9.823,0,0,0-2,4.1l-.1.4Z" fill="#2557a1"/>
      <path id="Tracé_9" data-name="Tracé 9" d="M692.2,374.5c-3.7,0-6.4-.9-8.3-2.6-1.8-1.7-2.7-4.2-2.7-7.4a23.487,23.487,0,0,1,.8-6,13.4,13.4,0,0,1,2.3-4.8,12.267,12.267,0,0,1,4.3-3.9,13.073,13.073,0,0,1,6.1-1.4,11.423,11.423,0,0,1,4.8.9,6.757,6.757,0,0,1,3,2.5,9.549,9.549,0,0,1,1.4,3.9,18.664,18.664,0,0,1-.2,5.2l-.4,2.3H687.9v.5c0,2.1.4,3.5,1.3,4.4s2.4,1.3,4.6,1.3a20.236,20.236,0,0,0,4.3-.5,15.179,15.179,0,0,0,3.6-1.2l-.8,4.6a20.837,20.837,0,0,1-3.6,1.4,18.179,18.179,0,0,1-5.1.8Zm5.2-15.4c.4-2.1.3-3.6-.2-4.5-.5-1-1.5-1.4-3-1.4a4.6,4.6,0,0,0-3.4,1.4,9.823,9.823,0,0,0-2,4.1l-.1.4Z" fill="#2557a1"/>
      <path id="Tracé_10" data-name="Tracé 10" d="M714.1,374.4c-2.7,0-4.6-.7-5.7-2s-1.3-3.3-.9-5.7l2.3-12.9h-3.3l.9-4.9h3.2l1.1-6h6.7l-1.1,6h5.5l-.9,4.9h-5.5l-2.2,12.4a3.316,3.316,0,0,0,.2,2.3c.3.5,1.1.8,2.3.8a6.15,6.15,0,0,0,1.4-.1c.5-.1,1-.2,1.4-.3l-.8,4.4a5.839,5.839,0,0,1-1.9.7,12.309,12.309,0,0,1-2.9.3Z" fill="#2557a1"/>
      <path id="Tracé_11" data-name="Tracé 11" d="M746.8,340.7l2.6,23.1h.1l10.9-23.1h10.2L764.7,374h-7.2l4.3-24.6h-.1L750.2,374h-5.7l-2.7-24.6h-.1L737.3,374H731l5.9-33.3Z" fill="#2557a1"/>
      <path id="Tracé_12" data-name="Tracé 12" d="M778.3,374.4a7.026,7.026,0,0,1-5.6-2.2,9.329,9.329,0,0,1-2-6.3,20.7,20.7,0,0,1,1.2-7.3,17.5,17.5,0,0,1,3.4-5.6,14.6,14.6,0,0,1,5-3.5,16.078,16.078,0,0,1,6.3-1.2,25.281,25.281,0,0,1,2.8.1c.9.1,1.7.2,2.5.3s1.4.3,2,.4a6.832,6.832,0,0,1,1.3.4l-4.3,24.4h-5.5l-.1-2.6h-.2a10.585,10.585,0,0,1-2.9,2.2,7.759,7.759,0,0,1-3.9.9Zm2.6-4.9a6.875,6.875,0,0,0,2.4-.5,9.632,9.632,0,0,0,2-1.2l2.5-14.1c-.3-.1-.7-.2-1-.3a4.122,4.122,0,0,0-1.2-.1,6.505,6.505,0,0,0-4.9,2.1,12.063,12.063,0,0,0-2.8,5.9c-.1.7-.3,1.3-.4,2a15.487,15.487,0,0,0-.1,2.2,4.1,4.1,0,0,0,1,3.2,4.637,4.637,0,0,0,2.5.8Z" fill="#2557a1"/>
      <path id="Tracé_13" data-name="Tracé 13" d="M806.7,348.9l-.5,2.8h.2a18.455,18.455,0,0,1,4-2.4,10.356,10.356,0,0,1,4.3-.9,7.544,7.544,0,0,1,2.8.4,5.162,5.162,0,0,1,1.9,1.2,4.352,4.352,0,0,1,1,1.9,8.75,8.75,0,0,1,.3,2.4v1.1c0,.4-.1.8-.1,1.2L817.5,374h-6.7l2.8-16.2c0-.3.1-.6.1-.9v-.8a2.445,2.445,0,0,0-.6-1.8,2.928,2.928,0,0,0-2.1-.6,7.267,7.267,0,0,0-2.5.4,13.1,13.1,0,0,0-2.8,1.2l-3.3,18.6h-6.7l4.5-25.2Z" fill="#2557a1"/>
      <path id="Tracé_14" data-name="Tracé 14" d="M830.4,374.4a7.026,7.026,0,0,1-5.6-2.2,9.329,9.329,0,0,1-2-6.3,20.7,20.7,0,0,1,1.2-7.3,17.5,17.5,0,0,1,3.4-5.6,14.6,14.6,0,0,1,5-3.5,16.078,16.078,0,0,1,6.3-1.2,25.281,25.281,0,0,1,2.8.1c.9.1,1.7.2,2.5.3s1.4.3,2,.4a6.832,6.832,0,0,1,1.3.4L843,373.9h-5.5l-.1-2.6h-.2a10.585,10.585,0,0,1-2.9,2.2,7.505,7.505,0,0,1-3.9.9Zm2.6-4.9a6.875,6.875,0,0,0,2.4-.5,9.632,9.632,0,0,0,2-1.2l2.5-14.1c-.3-.1-.7-.2-1-.3a4.122,4.122,0,0,0-1.2-.1,6.505,6.505,0,0,0-4.9,2.1,12.063,12.063,0,0,0-2.8,5.9c-.1.7-.3,1.3-.4,2a15.487,15.487,0,0,0-.1,2.2,4.1,4.1,0,0,0,1,3.2,4.94,4.94,0,0,0,2.5.8Z" fill="#2557a1"/>
      <path id="Tracé_15" data-name="Tracé 15" d="M856,383.7a28.1,28.1,0,0,1-2.9-.1,17.826,17.826,0,0,1-2.6-.4,15.457,15.457,0,0,1-2.3-.7,4.771,4.771,0,0,1-1.6-.8l.8-4.8q1.2.45,3.3,1.2a16.315,16.315,0,0,0,4.5.6,11.756,11.756,0,0,0,3.4-.4,5.739,5.739,0,0,0,2.2-1.2,4.629,4.629,0,0,0,1.3-1.8,13.7,13.7,0,0,0,.7-2.4l.3-2.1h-.2a11.661,11.661,0,0,1-2.7,1.9,9.979,9.979,0,0,1-4.1.8,6.873,6.873,0,0,1-5.4-2.2,9.329,9.329,0,0,1-2-6.3,19.871,19.871,0,0,1,1-6.6,15.751,15.751,0,0,1,3-5.2,13.941,13.941,0,0,1,4.8-3.4,16.078,16.078,0,0,1,6.3-1.2,25.221,25.221,0,0,1,5.8.6,26.367,26.367,0,0,1,4.2,1.3l-4.1,23.1a12.034,12.034,0,0,1-4.1,7.7c-2.1,1.7-5.4,2.3-9.6,2.4Zm2.9-15a6.71,6.71,0,0,0,2.8-.6,24.194,24.194,0,0,0,2.3-1.2l2.3-12.9a5.783,5.783,0,0,0-1.4-.5,9.852,9.852,0,0,0-1.7-.2,6.255,6.255,0,0,0-4.8,2,11.994,11.994,0,0,0-2.5,5.8,8.755,8.755,0,0,0-.2,1.6c0,.5-.1,1.1-.1,1.6a5,5,0,0,0,.9,3.3c.4.7,1.2,1,2.4,1.1Z" fill="#2557a1"/>
      <path id="Tracé_16" data-name="Tracé 16" d="M885.9,374.5c-3.7,0-6.4-.9-8.3-2.6-1.8-1.7-2.7-4.2-2.7-7.4a23.487,23.487,0,0,1,.8-6,13.4,13.4,0,0,1,2.3-4.8,12.267,12.267,0,0,1,4.3-3.9,13.073,13.073,0,0,1,6.1-1.4,11.423,11.423,0,0,1,4.8.9,6.757,6.757,0,0,1,3,2.5,9.549,9.549,0,0,1,1.4,3.9,18.664,18.664,0,0,1-.2,5.2l-.4,2.3H881.6v.5c0,2.1.4,3.5,1.3,4.4s2.4,1.3,4.6,1.3a20.236,20.236,0,0,0,4.3-.5,15.179,15.179,0,0,0,3.6-1.2l-.8,4.6a20.837,20.837,0,0,1-3.6,1.4,18.807,18.807,0,0,1-5.1.8Zm5.2-15.4c.4-2.1.3-3.6-.2-4.5-.5-1-1.5-1.4-3-1.4a4.6,4.6,0,0,0-3.4,1.4,9.823,9.823,0,0,0-2,4.1l-.1.4Z" fill="#2557a1"/>
      <path id="Tracé_17" data-name="Tracé 17" d="M909.4,348.9l-.5,2.8h.2a16.689,16.689,0,0,1,3.7-2.4,9.279,9.279,0,0,1,4.2-.9,5.7,5.7,0,0,1,3.6,1,5.342,5.342,0,0,1,1.7,2.5h.2a22.39,22.39,0,0,1,4.3-2.6,11.174,11.174,0,0,1,4.4-.9,6.459,6.459,0,0,1,2.6.4,4.345,4.345,0,0,1,1.7,1.2,5.734,5.734,0,0,1,1,1.9,8.523,8.523,0,0,1,.3,2.3,23.188,23.188,0,0,1-.2,2.4l-3,17.4h-6.8l2.9-16.2c0-.3.1-.7.1-1v-.9a2.175,2.175,0,0,0-.5-1.7,2.2,2.2,0,0,0-1.7-.6,9.08,9.08,0,0,0-2.3.3,10.907,10.907,0,0,0-2.7,1.3v1.2l-3.1,17.3h-6.7l2.9-16.2c0-.3.1-.7.1-1v-.9a2.06,2.06,0,0,0-2.3-2.3,6.723,6.723,0,0,0-2.4.4,14.438,14.438,0,0,0-2.6,1.2l-3.3,18.6h-6.7l4.5-25.2Z" fill="#2557a1"/>
      <path id="Tracé_18" data-name="Tracé 18" d="M950,374.5c-3.7,0-6.4-.9-8.3-2.6s-2.7-4.2-2.7-7.4a23.487,23.487,0,0,1,.8-6,13.4,13.4,0,0,1,2.3-4.8,12.267,12.267,0,0,1,4.3-3.9,13.073,13.073,0,0,1,6.1-1.4,11.423,11.423,0,0,1,4.8.9,6.757,6.757,0,0,1,3,2.5,9.549,9.549,0,0,1,1.4,3.9,18.664,18.664,0,0,1-.2,5.2l-.4,2.3H945.7v.5c0,2.1.4,3.5,1.3,4.4s2.4,1.3,4.6,1.3a20.236,20.236,0,0,0,4.3-.5,15.179,15.179,0,0,0,3.6-1.2l-.8,4.6a20.837,20.837,0,0,1-3.6,1.4,18.179,18.179,0,0,1-5.1.8Zm5.3-15.4c.4-2.1.3-3.6-.2-4.5-.5-1-1.5-1.4-3-1.4a4.6,4.6,0,0,0-3.4,1.4,9.823,9.823,0,0,0-2,4.1l-.1.4Z" fill="#2557a1"/>
      <path id="Tracé_19" data-name="Tracé 19" d="M973.7,348.9l-.5,2.8h.2a18.455,18.455,0,0,1,4-2.4,10.356,10.356,0,0,1,4.3-.9,7.544,7.544,0,0,1,2.8.4,5.162,5.162,0,0,1,1.9,1.2,4.352,4.352,0,0,1,1,1.9,8.75,8.75,0,0,1,.3,2.4v1.1c0,.4-.1.8-.1,1.2L984.5,374h-6.7l2.8-16.2c0-.3.1-.6.1-.9v-.8a2.445,2.445,0,0,0-.6-1.8,2.928,2.928,0,0,0-2.1-.6,7.267,7.267,0,0,0-2.5.4,13.1,13.1,0,0,0-2.8,1.2l-3.3,18.6h-6.7l4.5-25.2Z" fill="#2557a1"/>
      <path id="Tracé_20" data-name="Tracé 20" d="M998.3,374.4c-2.7,0-4.6-.7-5.7-2s-1.3-3.3-.9-5.7l2.3-12.9h-3.3l.9-4.9h3.2l1.1-6h6.7l-1.1,6h5.5l-.9,4.9h-5.5l-2.2,12.4a3.316,3.316,0,0,0,.2,2.3c.3.5,1.1.8,2.3.8a6.15,6.15,0,0,0,1.4-.1c.5-.1,1-.2,1.4-.3l-.8,4.4a5.839,5.839,0,0,1-1.9.7,12.309,12.309,0,0,1-2.9.3Z" fill="#2557a1"/>
    </g>
    <g id="Groupe_3" data-name="Groupe 3">
      <path id="Tracé_21" data-name="Tracé 21" d="M828.4,425.7a21.486,21.486,0,0,1-6.1-.8,17.81,17.81,0,0,1-4.1-1.8l1-5.3a28.252,28.252,0,0,0,4,1.7,14.484,14.484,0,0,0,4.9.7c2.2,0,3.7-.4,4.6-1.3a4.975,4.975,0,0,0,1.4-3.7,2.724,2.724,0,0,0-.7-2,7.914,7.914,0,0,0-2.7-1.6l-2.6-1.1a8.743,8.743,0,0,1-4.5-3.2,9.122,9.122,0,0,1-1.3-5.2,10.167,10.167,0,0,1,3-7.7c2-1.9,5.1-2.9,9.2-2.9a19.443,19.443,0,0,1,3.6.2,15.025,15.025,0,0,1,2.6.5,10.663,10.663,0,0,1,1.9.7c.5.3,1,.5,1.4.8l-1.1,5.2c-.5-.2-1.1-.5-1.6-.7-.6-.2-1.2-.5-1.9-.7a13.66,13.66,0,0,0-2.3-.4,23.482,23.482,0,0,0-2.7-.1,5.128,5.128,0,0,0-3.7,1.1,3.9,3.9,0,0,0-1.3,3.3,3.174,3.174,0,0,0,.6,2,5.342,5.342,0,0,0,2.3,1.4l2.8,1.1a11.07,11.07,0,0,1,4.9,3.3,8.551,8.551,0,0,1,1.5,5.3,12.317,12.317,0,0,1-.7,4.4,8.9,8.9,0,0,1-2.3,3.5,11.7,11.7,0,0,1-4.1,2.4,21.628,21.628,0,0,1-6,.9Z" fill="#2557a1"/>
      <path id="Tracé_22" data-name="Tracé 22" d="M854.4,425.5a12.515,12.515,0,0,1-4.5-.7,9.212,9.212,0,0,1-3.2-2,7.667,7.667,0,0,1-1.9-3.1,12.45,12.45,0,0,1-.6-4,20.951,20.951,0,0,1,.9-6.1,15.135,15.135,0,0,1,2.7-5.2,13.569,13.569,0,0,1,4.3-3.6,12.641,12.641,0,0,1,6-1.3,13.085,13.085,0,0,1,4.6.7,10.773,10.773,0,0,1,3.3,2,9.188,9.188,0,0,1,2,3.1,12.394,12.394,0,0,1,.7,4,20.649,20.649,0,0,1-.9,6.2,16.1,16.1,0,0,1-2.7,5.2,13.022,13.022,0,0,1-4.5,3.5,14.683,14.683,0,0,1-6.2,1.3Zm.5-4.7a4.978,4.978,0,0,0,4.1-2,14.281,14.281,0,0,0,2.2-5.9l.3-2.1c0-.7.1-1.2.1-1.7,0-1.8-.4-3-1.2-3.7a4.172,4.172,0,0,0-2.9-1.1,5.307,5.307,0,0,0-4.2,2,11.959,11.959,0,0,0-2.2,5.9c-.1.7-.2,1.3-.3,1.9V416a4.837,4.837,0,0,0,1.2,3.7,5.365,5.365,0,0,0,2.9,1.1Z" fill="#2557a1"/>
      <path id="Tracé_23" data-name="Tracé 23" d="M882.4,389.6l-6.2,35.5h-6.7l6.2-35.5Z" fill="#2557a1"/>
      <path id="Tracé_24" data-name="Tracé 24" d="M888.3,425.5a5.591,5.591,0,0,1-6.2-6.2v-1.1c0-.4.1-.8.1-1.2l3-17.1h6.7L889,416.2a11.139,11.139,0,0,0-.2,1.7,2.445,2.445,0,0,0,.6,1.8,2.814,2.814,0,0,0,2,.6,7.457,7.457,0,0,0,2.6-.4,15.032,15.032,0,0,0,2.7-1.2l3.3-18.8h6.8l-4.5,25.2h-5.7l-.2-2.8h-.2a16.689,16.689,0,0,1-3.7,2.4,9.55,9.55,0,0,1-4.2.8Z" fill="#2557a1"/>
      <path id="Tracé_25" data-name="Tracé 25" d="M916.6,425.5c-2.7,0-4.6-.7-5.7-2s-1.3-3.3-.9-5.7l2.3-12.9H909l.9-4.9h3.2l1.1-6h6.7l-1.1,6h5.5l-.9,4.9H919l-2.2,12.4a3.316,3.316,0,0,0,.2,2.3c.3.5,1.1.8,2.3.8a6.15,6.15,0,0,0,1.4-.1c.5-.1,1-.2,1.4-.3l-.8,4.4a5.839,5.839,0,0,1-1.9.7,12.309,12.309,0,0,1-2.9.3Z" fill="#2557a1"/>
      <path id="Tracé_26" data-name="Tracé 26" d="M935.9,399.9l-4.4,25.2h-6.7l4.4-25.2Zm1.7-9.3-1,5.6h-6.8l1-5.6Z" fill="#2557a1"/>
      <path id="Tracé_27" data-name="Tracé 27" d="M947.4,425.5a12.515,12.515,0,0,1-4.5-.7,9.212,9.212,0,0,1-3.2-2,7.667,7.667,0,0,1-1.9-3.1,12.45,12.45,0,0,1-.6-4,20.951,20.951,0,0,1,.9-6.1,15.135,15.135,0,0,1,2.7-5.2,13.569,13.569,0,0,1,4.3-3.6,12.641,12.641,0,0,1,6-1.3,13.085,13.085,0,0,1,4.6.7,10.773,10.773,0,0,1,3.3,2,9.188,9.188,0,0,1,2,3.1,12.394,12.394,0,0,1,.7,4,20.649,20.649,0,0,1-.9,6.2,16.1,16.1,0,0,1-2.7,5.2,13.022,13.022,0,0,1-4.5,3.5,14.683,14.683,0,0,1-6.2,1.3Zm.6-4.7a4.978,4.978,0,0,0,4.1-2,14.281,14.281,0,0,0,2.2-5.9l.3-2.1a10.9,10.9,0,0,0,.1-1.7c0-1.8-.4-3-1.2-3.7a4.172,4.172,0,0,0-2.9-1.1,5.307,5.307,0,0,0-4.2,2,11.959,11.959,0,0,0-2.2,5.9c-.1.7-.2,1.3-.3,1.9V416a4.837,4.837,0,0,0,1.2,3.7,4.688,4.688,0,0,0,2.9,1.1Z" fill="#2557a1"/>
      <path id="Tracé_28" data-name="Tracé 28" d="M973.3,400l-.5,2.8h.2a18.455,18.455,0,0,1,4-2.4,10.356,10.356,0,0,1,4.3-.9,7.544,7.544,0,0,1,2.8.4,5.162,5.162,0,0,1,1.9,1.2,4.352,4.352,0,0,1,1,1.9,8.75,8.75,0,0,1,.3,2.4v1.1c0,.4-.1.8-.1,1.2l-3.1,17.4h-6.7l2.8-16.2c0-.3.1-.6.1-.9v-.8a2.445,2.445,0,0,0-.6-1.8,2.928,2.928,0,0,0-2.1-.6,7.267,7.267,0,0,0-2.5.4,13.1,13.1,0,0,0-2.8,1.2L969,425h-6.7l4.5-25.2Z" fill="#2557a1"/>
      <path id="Tracé_29" data-name="Tracé 29" d="M996.5,425.6a18.513,18.513,0,0,1-5-.6,16.935,16.935,0,0,1-3.5-1.4l.8-4.7a19.551,19.551,0,0,0,3.2,1.2,13.3,13.3,0,0,0,4.2.6q2.7,0,3.6-.9a2.815,2.815,0,0,0,1-2.1,2.035,2.035,0,0,0-.6-1.5,5.58,5.58,0,0,0-2.2-1.1l-2.1-.8a8.3,8.3,0,0,1-3.6-2.3,6.15,6.15,0,0,1-1.3-4.3,7.416,7.416,0,0,1,2.7-6.2,11.954,11.954,0,0,1,7.5-2.2,14.491,14.491,0,0,1,4.7.6,21.328,21.328,0,0,1,2.9,1.2l-.9,4.7a17.307,17.307,0,0,0-2.8-1,15.377,15.377,0,0,0-3.9-.5,4.6,4.6,0,0,0-2.9.7,2.323,2.323,0,0,0-.9,1.9,1.755,1.755,0,0,0,.6,1.5,8.158,8.158,0,0,0,1.9,1l2.1.7a9.874,9.874,0,0,1,4.5,2.6,6.347,6.347,0,0,1,1.2,4,10.3,10.3,0,0,1-.6,3.5,5.8,5.8,0,0,1-1.9,2.7,8.772,8.772,0,0,1-3.3,1.8,17.168,17.168,0,0,1-5,.7Z" fill="#2557a1"/>
    </g>
  </g>
</svg>
